<svg xmlns="http://www.w3.org/2000/svg" viewBox="0 0 980 980" fill="none" shape-rendering="auto"><metadata xmlns:rdf="http://www.w3.org/1999/02/22-rdf-syntax-ns#" xmlns:xsi="http://www.w3.org/2001/XMLSchema-instance" xmlns:dc="http://purl.org/dc/elements/1.1/" xmlns:dcterms="http://purl.org/dc/terms/"><rdf:RDF><rdf:Description><dc:title>Lorelei</dc:title><dc:creator>Lisa Wischofsky</dc:creator><dc:source xsi:type="dcterms:URI">https://www.figma.com/community/file/1198749693280469639</dc:source><dcterms:license xsi:type="dcterms:URI">https://creativecommons.org/publicdomain/zero/1.0/</dcterms:license><dc:rights>Remix of „Lorelei” (https://www.figma.com/community/file/1198749693280469639) by „Lisa Wischofsky”, licensed under „CC0 1.0” (https://creativecommons.org/publicdomain/zero/1.0/)</dc:rights></rdf:Description></rdf:RDF></metadata><mask id="viewboxMask"><rect width="980" height="980" rx="0" ry="0" x="0" y="0" fill="#fff" /></mask><g mask="url(#viewboxMask)"><g transform="translate(10 -60)"><path d="M495 231a231 231 0 0 1 219 204c1 10 2 21 0 30-1 4-1 7-4 8-3-10-3-19-4-29a220 220 0 0 0-239-205c-42 4-83 19-117 44l-17 13a221 221 0 0 0-78 164c0 23 7 43 15 64h17c3 1 4 4 2 6l-6 2c-15 1-31 7-42 17-8 9-14 19-16 31-3 15 0 32 8 45 9 15 24 27 40 33 14 5 29 7 43 5 4-1 8-2 11 0v3c-5 5-11 6-18 7-16 3-33-1-47-8a86 86 0 0 1-47-58c-4-18-1-37 9-53 8-12 20-21 34-26-7-14-10-28-12-43-2-18-2-35 0-53 1-13 4-25 8-38a227 227 0 0 1 99-122c41-28 92-43 142-41Z" fill="#000"/><path d="M535 244a220 220 0 0 1 171 200c1 10 1 19 4 29l-2 18v22c-3 4-4 9-4 14-2 8-2 15-2 23v65c0 21-3 42-11 61-4 13-10 24-18 35-10 12-21 22-34 31-11 9-24 17-37 24l-22 14-12 8 9-2c-3 11-3 24-4 36 0 8 1 16 7 22a235 235 0 0 0 81 45c6 7 11 16 13 25 1 9 0 18-4 27-6 10-14 18-23 24-13 10-28 17-43 22a417 417 0 0 1-217 11c-16-3-33-9-48-17-10-5-21-12-28-21-6-6-10-14-11-22-2-10 0-21 5-30 21-13 39-32 49-54 5-11 7-22 8-34 1-16 0-32-1-47-2-20-3-41-8-61 11 12 23 24 37 32 17 11 36 20 55 26 20 7 41 13 63 18l25 3c3 0 6 0 8-2 2-1 1-2 2-3l-17-2c-29-7-58-16-87-27-18-7-36-15-53-27-18-13-33-30-47-47l-11-16-1-1v-3c-3-2-7-1-11 0-14 2-29 0-43-5-16-6-31-18-40-33-8-13-11-30-8-45 2-12 8-22 16-31 11-10 27-16 42-17l6-2c2-2 1-5-2-6h-17c-8-21-15-41-15-64-1-14 2-27 5-41a221 221 0 0 1 73-123l17-13a230 230 0 0 1 185-39Z" fill="#ffffff"/><path d="M708 513c3 3 2 7 3 12v29c0 26 2 54 0 80-3 31-14 63-36 86-25 28-57 51-93 64l2 7v35c1 6 4 10 8 14l26 19 32 20 24 12c2 0 3 1 5 3l-19-5c-19-6-37-14-54-25-9-5-19-12-26-20-6-6-7-14-7-22 1-12 1-25 4-36l-9 2 12-8 22-14c13-7 26-15 37-24 13-9 24-19 34-31a178 178 0 0 0 29-96v-65c0-8 0-15 2-23 0-5 1-10 4-14ZM278 574c5 5 4 14 0 19l-3 7c1 3 5 5 7 6 6 3 12 7 19 9 0 4-3 5-7 5-6-1-13-3-18-6-7-3-13-8-13-16 0-6 5-9 6-14 2-4 0-7-1-11 4-1 7-2 10 1ZM328 667l11 16c14 17 29 34 47 47 17 12 35 20 53 27a714 714 0 0 0 104 29c-1 1 0 2-2 3-2 2-5 2-8 2l-25-3a478 478 0 0 1-118-44c-14-8-26-20-37-32 5 20 6 41 8 61 1 15 2 31 1 47-1 12-3 23-8 34-10 22-28 41-49 54l-14 8c2-4 6-6 9-9 13-11 24-25 34-39 6-10 12-21 14-33 4-19 3-39 3-58l-3-59 2-10c-10-11-19-26-22-41Z" fill="#000"/><path d="M683 485c4 0 8 0 10 3 4 3 4 10-1 13-3 2-6 2-10 2l-18 4c0 7-1 15-4 22-2 5-6 9-10 12-6 3-13 1-17-4l-3-8c-3 3-5 6-9 8-3 1-4 0-4-3 1-6 4-11 8-15a91 91 0 0 1 42-32l16-2ZM441 499c11 0 21 2 31 4 14 4 28 8 40 18 3 3 8 6 9 10 0 2 0 3-2 3l-11-5c-10-5-22-8-34-10-2 9-4 18-10 26-4 4-9 6-15 6-8-1-16-5-21-11-5-7-6-14-7-23l-14 4c-3 1-6 2-9 1-5-1-7-6-6-11 1-4 5-6 9-7 12-5 27-6 40-5Z" fill="#000000"/><path d="M496 375c10 1 20 4 27 11 3 3 5 7 6 11-11-5-22-6-33-6-6 1-12 4-17 7-23 12-43 29-66 41l-20 14-11 11c-1-5 1-10 2-14 4-10 11-17 19-24l24-17c13-9 27-19 41-26 9-4 18-8 28-8ZM701 411c-6 3-11 3-17 4-5 1-10 3-14 6-9 7-17 15-24 24-9 10-17 18-29 24l-7 2c-2 1-4 0-6 2-4 5-4 13-9 17-2 0-2-2-2-3v-13c1-5 3-12 7-16s9-4 13-8l15-10 23-18c6-5 13-10 20-13 10-3 21-3 30 2Z" fill="#000000"/><path d="M594 572a37 37 0 0 1 19 29c0 9-5 18-13 22l-17 7c-4 1-6 2-9 0-2-3-1-4 1-6 6-5 15-7 21-12 3-2 5-5 5-9 0-10-5-17-7-26v-5Z" fill="#000000"/><path fill-rule="evenodd" clip-rule="evenodd" d="M603 664c-2-2-4-1-6-1a400 400 0 0 0-58 26l-5 4-1 4 4 5 4 5c6 5 13 11 21 14 5 2 12 3 16-1 5-3 8-9 10-14a375 375 0 0 0 15-36v-6Zm-14 21 4-12-51 23 12 9 10 8c3 2 8 4 11 1l6-9 1-2 7-18Z" fill="#000000"/><path d="M473 221a404 404 0 0 1 84 9c11 3 21 5 31 9l35 13c10 3 19 9 29 13l16 6 29 6c5 2 9 5 11 10 3 6 2 12 0 18l10 5c5 5 7 12 5 19-2 4-6 7-10 9a99 99 0 0 1-69 8l-44-10-62-17a239 239 0 0 0-163 3l-4 14c-4 16-7 32-8 48v17l-1 8c-3 7-9 14-13 21-12 18-23 37-32 56l-2 14v39c0 5 2 9-1 13-15-2-30-6-46-10-2 0-5 0-7-2l-7-9c-4-3-5-9-7-14-7-21-9-45-9-68 0-28 5-55 10-82 4-15 10-29 17-42 10-20 24-37 40-52 16-16 35-27 56-35a298 298 0 0 1 112-17ZM288 552c10 0 20 3 29 5 4 1 9 3 12 6 3 2 2 6-1 7-9 3-16 0-24-2-6-2-14-4-20-8-2-1-5-4-3-6s5-2 7-2ZM725 669c1 2 1 3-1 5l1-5Z" fill="#000000"/></g><g transform="translate(10 -60)"></g></g></svg>