<svg xmlns="http://www.w3.org/2000/svg" viewBox="0 0 980 980" fill="none" shape-rendering="auto"><metadata xmlns:rdf="http://www.w3.org/1999/02/22-rdf-syntax-ns#" xmlns:xsi="http://www.w3.org/2001/XMLSchema-instance" xmlns:dc="http://purl.org/dc/elements/1.1/" xmlns:dcterms="http://purl.org/dc/terms/"><rdf:RDF><rdf:Description><dc:title>Lorelei</dc:title><dc:creator>Lisa Wischofsky</dc:creator><dc:source xsi:type="dcterms:URI">https://www.figma.com/community/file/1198749693280469639</dc:source><dcterms:license xsi:type="dcterms:URI">https://creativecommons.org/publicdomain/zero/1.0/</dcterms:license><dc:rights>Remix of „Lorelei” (https://www.figma.com/community/file/1198749693280469639) by „Lisa Wischofsky”, licensed under „CC0 1.0” (https://creativecommons.org/publicdomain/zero/1.0/)</dc:rights></rdf:Description></rdf:RDF></metadata><mask id="viewboxMask"><rect width="980" height="980" rx="0" ry="0" x="0" y="0" fill="#fff" /></mask><g mask="url(#viewboxMask)"><g transform="translate(10 -60)"><path d="M466 220h27a276 276 0 0 1 178 82c2 2 5 4 6 7s1 6-1 8c-4 4-10 5-15 6-25 3-50 4-75 5h-78l-39-1-27-1c-23-1-45-3-66-6 3 20 0 40-7 59a161 161 0 0 1-40 65l-14 10 5 39v27l10 7c-4 2-10 0-14 0 5 4 9 9 12 14l7 10-5-1c-7-3-15-4-22-6l-19-7c0 4-1 8-5 10-3 3-7 1-11 0l-4 5c-4 2-5 5-9 5s-7-4-9-8l-10-19a248 248 0 0 1 1-149 229 229 0 0 1 73-105c42-35 96-54 151-56Z" fill="#000000"/><path d="M304 548c6 1 12 4 17 7 3 2 6 4 7 8l-15-5c-5-2-11-2-16-5l1-3c1-2 4-2 6-2Z" fill="#000000"/><path d="M528 244c41 6 80 22 113 47 28 21 50 49 65 81 13 28 20 60 19 91-1 15-3 30-8 44h-2l1-21c1-30-2-59-13-87-10-30-28-57-50-79-42-40-98-62-156-63a243 243 0 0 0-196 94 207 207 0 0 0-40 139l2 25c8 0 19 0 25 7l-3 3-17 1c-12 1-24 5-33 13a64 64 0 0 0-17 39c-5 32 12 65 39 83 16 10 36 15 55 9 4-2 9-5 14-3 3 1 4 4 5 7a251 251 0 0 0 90 100c8 7 18 13 28 18 18 8 38 14 57 19l32 8c5 1 9 1 13 3l-4 1c-25 2-48-3-72-10-12-3-23-7-34-12a306 306 0 0 1-84-63l2 28c1 17 0 35-6 52-4 12-11 24-19 34-10 10-22 19-34 26-10 7-21 14-32 18l-16 5 9-9 31-20 22-17a95 95 0 0 0 32-56c2-14 2-28 2-43v-27c-10-14-22-29-27-46-17 8-38 7-55-1-17-7-32-19-43-33-12-17-19-36-21-56s2-40 15-56c9-10 22-18 35-21-4-14-6-29-6-44a234 234 0 0 1 83-173 249 249 0 0 1 199-55Z" fill="#000"/><path d="M653 320c22 22 40 49 50 79 11 28 14 57 13 87l-1 21-5 15-2 13 2 56c0 21 1 42-1 63l-3 47c-2 16-7 31-14 45-11 18-26 33-44 44-13 8-27 12-41 16l-38 11-17 3c0 1 1 2 3 2 8 5 17 5 26 4-3 7-4 14-2 22 3 7 11 11 17 14 12 6 24 7 36 9 7 6 14 14 16 24 2 8 2 16-2 23-5 10-14 18-24 23-13 8-27 14-42 18a468 468 0 0 1-222-1c-17-4-33-9-48-17-12-6-23-13-32-22-5-7-9-14-10-23 11-4 22-11 32-18 12-7 24-16 34-26 8-10 15-22 19-34 6-17 7-35 6-52l-2-28 22 23c19 15 40 30 62 40 11 5 22 9 34 12 24 7 47 12 72 10l4-1c-4-2-8-2-13-3l-32-8c-19-5-39-11-57-19l-29-17c-11-9-23-17-33-27a251 251 0 0 1-56-74c-1-3-2-6-5-7-5-2-10 1-14 3-19 6-39 1-55-9a88 88 0 0 1-39-83c1-14 7-28 17-39 9-8 21-12 33-13l17-1 3-3c-6-7-17-7-25-7l-2-25a207 207 0 0 1 40-139 243 243 0 0 1 196-94c58 1 114 23 156 63Z" fill="#ffffff"/><path d="M710 522c3 0 3 4 4 6 3 11 4 23 5 34l2 21c1 22 2 43 1 65-1 21-1 44-5 65a136 136 0 0 1-80 99c-15 7-31 11-48 13v15c1 3 3 4 5 6 12 6 23 8 36 11 12 3 24 5 36 11-3 3-7 4-11 4-7 1-15-1-23-1-12-2-24-3-36-9-6-3-14-7-17-14-2-8-1-15 2-22-9 1-18 1-26-4-2 0-3-1-3-2l17-3 38-11c14-4 28-8 41-16 18-11 33-26 44-44 7-14 12-29 14-45l3-47c2-21 1-42 1-63l-2-56 2-13ZM252 549c8 0 17 1 23 7 5 4 10 9 12 15 1 3 0 6-2 8l-13 8c-7 6-7 19 0 25 6 5 14 8 21 11 2 0 5 1 6 3-1 2-3 3-5 3-10 0-20-3-28-9-5-3-8-8-9-13-2-8-2-17 4-24 4-6 11-9 18-12-4-5-7-11-14-13-7-3-15-3-22-5l9-4Z" fill="#000"/><path d="M681 473c6 2 13 7 15 14 2 4 1 9-3 12-5 2-10 0-12-4-3-3-7-7-12-8-4-1-9 0-13 2l4 5c4 6 5 14 5 21s-2 14-4 20c3-1 6-4 10-4 0 4 0 7-2 10-5 6-13 10-21 11s-17 2-24-3c-5-3-5-8-5-13l-2-6c0-10 4-19 9-27 7-11 17-20 29-26 8-4 17-6 26-4ZM473 519c14 2 28 6 42 11 3 1 6 1 8 4 4 3 4 9 0 12-3 2-7 2-11 2h-45c-13 0-28 1-41-1l-7-3-14 2c-2 0-5 0-6-2-3-2-2-6 0-8s6-3 9-4c9-2 18-4 27-4l9-1-16-1c-6-1-13 0-19-2-2 0-3-1-3-3s2-2 3-3l15-2c16-1 33 0 49 3Z" fill="#000000"/><path d="M467 377c15 1 32 5 44 15 4 3 8 7 9 11 1 3 1 5-2 6-3 0-6-3-8-5-11-8-24-13-38-13-8 0-15 2-23 4-15 3-29 11-38 23-3 3-5 7-10 8s-10-3-10-8c-1-4 2-8 4-11 12-15 30-25 49-29 7-2 15-2 23-1ZM672 387c5 2 10 7 13 11 3 3 5 7 5 11 0 6-6 10-12 8-5-2-6-7-10-11-4-3-9-7-13-8-12-4-24 1-32 9l-9 9c0-7 4-13 9-17 12-13 32-18 49-12Z" fill="#000000"/><path d="m591 528 2 2 7 22c4 8 10 15 15 23 4 6 6 13 5 20-1 6-4 12-9 16-7 7-16 12-25 16-5 3-11 4-17 2l5-4c11-9 25-14 36-24 2-2 4-6 4-9-1-7-5-11-8-16-5-9-10-16-13-25-2-7-4-16-2-23Z" fill="#000000"/><path fill-rule="evenodd" clip-rule="evenodd" d="M622 659c1-4-5-4-7-4-15 0-30 3-45 7a441 441 0 0 0-84 36c-6 3-11 7-15 13l-2 4 5-1c5-5 12-8 18-12 0 7 0 14 4 20 3 6 9 10 15 11 9 1 19-3 26-9 11-8 18-20 24-32 3-6 3-11 3-17 16-6 33-9 49-12h1c3 0 6-1 8-4Zm-84 48c6-8 11-18 14-29l-27 10c0 7-4 14-7 21l-1-6v-1l2-12-23 10v1c2 6 4 14 9 18 4 5 10 5 16 3 7-3 13-9 17-15Z" fill="#000000"/><path d="M466 220h17a310 310 0 0 1 148 49c16 11 32 24 45 38 2 2 3 6 1 9s-6 5-9 6c-8 2-17 2-26 3l-23 2-30 1h-87l-37-1c-30-1-60-3-89-7 2 16 1 33-4 49a158 158 0 0 1-43 75l-14 10 5 39v27l10 7c-4 2-9 0-14 0 4 4 9 8 12 13l7 12-6-2-18-6-25-8-27-8c-4-2-7-6-10-9h-6c-4-1-6-4-7-8a237 237 0 0 1 51-208c25-29 57-52 92-65 28-11 57-17 87-18ZM309 550c7 0 14 2 20 6 6 3 12 6 15 12-4 0-8 0-11-2l-23-10-5-3c0-3 2-3 4-3ZM316 567h6c10 2 17 7 25 12 3 2 7 5 9 9-4 2-9 2-13 0-9-3-17-6-24-12l-4-3c-1-2 0-4 1-6Z" fill="#000000"/></g><g transform="translate(10 -60)"></g></g></svg>