<svg xmlns="http://www.w3.org/2000/svg" viewBox="0 0 980 980" fill="none" shape-rendering="auto"><metadata xmlns:rdf="http://www.w3.org/1999/02/22-rdf-syntax-ns#" xmlns:xsi="http://www.w3.org/2001/XMLSchema-instance" xmlns:dc="http://purl.org/dc/elements/1.1/" xmlns:dcterms="http://purl.org/dc/terms/"><rdf:RDF><rdf:Description><dc:title>Lorelei</dc:title><dc:creator>Lisa Wischofsky</dc:creator><dc:source xsi:type="dcterms:URI">https://www.figma.com/community/file/1198749693280469639</dc:source><dcterms:license xsi:type="dcterms:URI">https://creativecommons.org/publicdomain/zero/1.0/</dcterms:license><dc:rights>Remix of „Lorelei” (https://www.figma.com/community/file/1198749693280469639) by „Lisa Wischofsky”, licensed under „CC0 1.0” (https://creativecommons.org/publicdomain/zero/1.0/)</dc:rights></rdf:Description></rdf:RDF></metadata><mask id="viewboxMask"><rect width="980" height="980" rx="0" ry="0" x="0" y="0" fill="#fff" /></mask><g mask="url(#viewboxMask)"><g transform="translate(10 -60)"><path d="m405 197-2 7-4 12c17-4 33-6 50-7 20-1 41 0 62 3 18 2 36 7 54 11l57 17c15 4 30 8 46 10 4 1 7 1 10 4l-3 4c-2 3-5 3-8 5 10 7 19 15 27 23l16 20c3 4 6 9 7 14v5l-13 7c4 12 8 24 8 37 0 10 1 21-3 31-1 3-1 6-4 7-4 1-7-2-9-5a328 328 0 0 1-42-64l-14-3 6 10c1 1 3 3 2 5-1 3-4 3-7 4-14 3-30 1-44-2-22-6-43-14-64-23l-24-13c-5-1-9-4-13-6-3-1-6-2-7-5l6-7-2-3c-3-1-7 1-11 1-6 0-12 1-17 3l2-12c0-2-3-4-4-2-4 2-6 5-9 8l-10 12-3 1-24-6-8 1c-2 1-2 3 0 4 3 4 6 7 8 12 0 9-5 17-10 24-9 11-19 21-31 29l-21 14c-4 2-6 5-6 8l-1 29c0 3 0 6-2 9-15 15-28 32-34 53-4 15-3 29-2 44v21l-1 9c-1 4-4 7-8 8-10 3-20 8-32 8-5 0-7 4-12 2s-6-7-8-11c-21-46-31-96-27-147 2-29 9-58 22-84 11-23 26-44 45-61a194 194 0 0 1 57-34l5-2a176 176 0 0 1 48-40c2-1 5-1 6 1Z" fill="#000000"/><path d="M486 236c57-2 115 18 159 56a209 209 0 0 1 73 190c-1 4-1 8-4 12l-1-3v-33a215 215 0 0 0-172-206 235 235 0 0 0-270 153c-12 37-14 78-6 116 6-2 12-2 17-2 2 1 5 1 6 3s0 3-1 4l-12 4c-14 3-27 8-37 18a63 63 0 0 0-22 45c0 12 3 24 8 35 8 13 19 24 33 31 18 10 41 13 62 7 2-1 4-2 6-1s3 4 4 6l15 30a215 215 0 0 0 72 63c28 15 59 21 90 26 3 1 8 1 10 4 1 2 0 3-2 4l-11 1a231 231 0 0 1-147-62c5 18 8 36 8 54 0 12-2 23-6 34-5 10-11 18-19 26a196 196 0 0 1-60 43c-1-1 1-2 2-3l17-14c13-12 25-23 35-38a93 93 0 0 0 17-65l-4-39-2-10-12-17c-5-10-11-20-13-31a93 93 0 0 1-96-31 81 81 0 0 1-19-51c0-12 3-23 8-34 9-16 23-29 40-36-8-31-8-62-3-93 8-40 26-77 51-108 45-54 115-87 186-88Z" fill="#000"/><path d="M541 252a214 214 0 0 1 172 206v33c-1 5-2 10-1 15-2 2-3 3-3 5-3 18-1 37 1 55 4 29 6 59 2 88-3 28-13 56-30 79-16 21-38 34-62 43-15 6-30 9-45 13-11 2-22 4-32 8 1 2 4 1 6 2 12 1 24-1 36-2-5 8-8 17-9 26-2 10 2 19 9 26 6 7 15 11 24 14 5 2 11 3 17 3 7 9 13 18 14 30 2 12-1 24-8 34-9 14-22 23-37 30-18 9-38 15-57 18a352 352 0 0 1-192-23c-18-10-38-23-48-42-4-7-8-16-6-24 18-10 33-23 47-38 8-8 14-16 19-26 4-11 6-22 6-34 0-18-3-36-8-54a235 235 0 0 0 147 62l11-1c2-1 3-2 2-4-2-3-7-3-10-4-31-5-62-11-90-26-18-10-36-22-50-37-8-8-16-17-22-26l-15-30c-1-2-2-5-4-6s-4 0-6 1a82 82 0 0 1-95-38c-5-11-8-23-8-35 1-17 9-34 22-45 10-10 23-15 37-18l12-4c1-1 2-2 1-4s-4-2-6-3c-5 0-11 0-17 2-8-38-6-79 6-116a236 236 0 0 1 270-153Z" fill="#ffffff"/><path d="m712 506 3 3 1 13 3 45c3 20 5 40 5 60 0 16-1 32-5 47-6 28-20 56-40 76a174 174 0 0 1-88 46c-1 9-4 16-4 25-1 6 2 10 5 15 8 8 18 14 28 19l18 9c-3 3-8 1-12 2-6 0-12-1-17-3-9-3-18-7-24-14-7-7-11-16-9-26 1-9 4-18 9-26-12 1-24 3-36 2-2-1-5 0-6-2 10-4 21-6 32-8 15-4 30-7 45-13 24-9 46-22 62-43 17-23 27-51 30-79 4-29 2-59-2-88-2-18-4-37-1-55 0-2 1-3 3-5ZM262 566c6 0 12 1 15 6 2 3 2 7 1 10-3 8-9 14-11 22-1 4 0 7 3 9 7 5 16 7 24 10l-2 2h-11c-6-1-12-2-17-5-5-4-9-11-7-18 2-9 9-15 12-23-7-4-14-2-20-8 3-4 8-6 13-5Z" fill="#000"/><path d="M684 485c6 2 11 7 13 13s1 13-2 18c-4 8-12 14-20 18-11 7-24 10-37 8-6 0-12-2-17-6-3-3-6-7-5-12v-3c-1-6 2-13 6-17 8-11 21-18 34-20 9-2 19-2 28 1ZM490 495c7 3 14 7 20 12l5 6c2 1 5 2 6 5 6 7 5 18-2 24-5 5-12 8-19 9-17 4-34 3-50 0-11-3-22-7-32-13-6-4-11-8-13-14-2-5-2-11 1-15 3-6 10-10 16-13 22-8 46-10 68-1Z" fill="#000000"/><path d="M669 490c5 0 11 1 15 4 3 2 5 5 6 9 0 6-4 11-8 15-7 8-18 12-29 15 3-8 3-17 0-25-2-5-4-9-9-12 8-4 16-6 25-6ZM459 499c13 0 27 4 39 9 6 3 11 6 15 11l-1 12c-1 5-6 7-10 8-18 6-36 4-54 0 3-5 5-10 6-16 0-8-3-17-10-22l15-2Z" fill="#fff"/><path d="M524 402c7 3 12 9 15 16 4 6 6 12 4 19-1 2-2 5-4 3-3-2-5-6-6-9l-14 2-26 3-39 4c-12 1-24 0-36-1-3 0-7-1-9-3-3-2-2-7 1-8 9-3 20-2 30-4 7-1 14-4 20-6 9-3 17-7 26-9l20-5c5-1 12-4 18-2ZM631 404c11 0 19 6 30 8 6 2 14 1 20 5 2 1 3 4 2 7-2 2-5 2-8 2l-14 1-25 6-23 2-5 18-3 3-2-5c-1-10 0-21 5-30 2-4 4-9 8-12 4-4 10-6 15-5Z" fill="#000000"/><path d="M603 613v1c-4 8-11 15-20 18-3 1-7 1-9-1v-4c7-5 16-9 24-12l5-2Z" fill="#000000"/><path d="M513 669c0 7-5 15-8 21 23-1 45 2 67-2 20-3 37-11 56-14 4 0 10-2 14 2-3 5-8 6-13 8-9 5-19 7-29 11-10 2-19 5-29 6-16 2-32 0-48-1l-21-4-10 23c-1 2-4 3-6 1v-8c3-12 10-24 16-35l7-11c3-1 5 0 4 3Z" fill="#000000"/><path d="M404 197c2 2 0 5-1 7l-4 12a338 338 0 0 1 135 0c28 6 55 14 82 22 17 5 33 9 51 12 4 0 8 1 11 4l-4 5-7 4c15 11 30 24 41 39 4 6 8 12 10 19 1 3-1 4-3 6l-18 7c-18 7-38 5-57 1 2 4 3 7 6 9 1 2 3 3 2 6s-5 3-7 4c-14 3-30 1-44-2-22-6-44-14-65-24l-39-19-5-4 7-7-2-3-15 1-14 3 3-12c1-2-1-3-3-3l-5 4-13 13-3 5-5-1c-8-3-17-5-25-5-3 0-6 1-5 4 3 5 7 7 9 13 0 8-5 17-10 24-9 11-19 21-30 29l-22 14c-4 2-6 4-6 8l-1 30c0 3 0 7-3 9-14 14-27 32-32 51-4 14-4 27-3 41v27c-1 2-1 6-4 7l-7-2-19-7a85 85 0 0 1-38-40c-6-13-10-26-13-40a228 228 0 0 1 3-104 178 178 0 0 1 72-102c13-10 28-19 44-24l4-3a162 162 0 0 1 46-39c3-1 5-1 6 1Z" fill="#000000"/></g><g transform="translate(10 -60)"></g></g></svg>